# xmcd CD database file
#
# Track frame offsets:
#	150
#	24365
#	60437
#
# Disc length: 1017 seconds
#
# Revision: 0
# Processed by: cddbd v1.5PL3 Copyright (c) Steve Scherf et al.
# Submitted via: CDex 1.50
#
DISCID=1803f703
DTITLE=遊佐　未森 - Light Song
DYEAR=2003
DGENRE=Pop
TTITLE0=ライトソング
TTITLE1=ユングフラウ
TTITLE2=CD-Extra
EXTD=YEAR: 2003
EXTT0=
EXTT1=
EXTT2=
PLAYORDER=
